<?xml version="1.0" encoding="UTF-8" standalone="no"?>
<svg
   version="1.1"
   width="128"
   height="128"
   id="svg3049"
   xml:space="preserve"
   xmlns:xlink="http://www.w3.org/1999/xlink"
   xmlns="http://www.w3.org/2000/svg"
   xmlns:svg="http://www.w3.org/2000/svg"
   xmlns:rdf="http://www.w3.org/1999/02/22-rdf-syntax-ns#"
   xmlns:cc="http://creativecommons.org/ns#"
   xmlns:dc="http://purl.org/dc/elements/1.1/"><defs
     id="defs3051"><linearGradient
       id="linearGradient3924"><stop
         id="stop3926"
         style="stop-color:#ffffff;stop-opacity:1"
         offset="0" /><stop
         id="stop3928"
         style="stop-color:#ffffff;stop-opacity:0.23529412"
         offset="0.06316455" /><stop
         id="stop3930"
         style="stop-color:#ffffff;stop-opacity:0.15686275"
         offset="0.95056331" /><stop
         id="stop3932"
         style="stop-color:#ffffff;stop-opacity:0.39215687"
         offset="1" /></linearGradient><linearGradient
       id="linearGradient3688-166-749-5"><stop
         id="stop2883-0"
         style="stop-color:#181818;stop-opacity:1"
         offset="0" /><stop
         id="stop2885-5"
         style="stop-color:#181818;stop-opacity:0"
         offset="1" /></linearGradient><linearGradient
       id="linearGradient3688-464-309-8"><stop
         id="stop2889-9"
         style="stop-color:#181818;stop-opacity:1"
         offset="0" /><stop
         id="stop2891-4"
         style="stop-color:#181818;stop-opacity:0"
         offset="1" /></linearGradient><linearGradient
       id="linearGradient3702-501-757-0"><stop
         id="stop2895-0"
         style="stop-color:#181818;stop-opacity:0"
         offset="0" /><stop
         id="stop2897-2"
         style="stop-color:#181818;stop-opacity:1"
         offset="0.5" /><stop
         id="stop2899-6"
         style="stop-color:#181818;stop-opacity:0"
         offset="1" /></linearGradient><linearGradient
       id="linearGradient3811"><stop
         id="stop3813"
         style="stop-color:#000000;stop-opacity:1"
         offset="0" /><stop
         id="stop3815"
         style="stop-color:#000000;stop-opacity:0"
         offset="1" /></linearGradient><radialGradient
       xlink:href="#linearGradient3688-166-749-5"
       id="radialGradient3946"
       gradientUnits="userSpaceOnUse"
       gradientTransform="matrix(2.003784,0,0,1.4,27.98813,-17.4)"
       cx="4.9929786"
       cy="43.5"
       fx="4.9929786"
       fy="43.5"
       r="2.5" /><radialGradient
       xlink:href="#linearGradient3688-464-309-8"
       id="radialGradient3948"
       gradientUnits="userSpaceOnUse"
       gradientTransform="matrix(2.003784,0,0,1.4,-20.01187,-104.4)"
       cx="4.9929786"
       cy="43.5"
       fx="4.9929786"
       fy="43.5"
       r="2.5" /><linearGradient
       xlink:href="#linearGradient3702-501-757-0"
       id="linearGradient3950"
       gradientUnits="userSpaceOnUse"
       x1="25.058096"
       y1="47.027729"
       x2="25.058096"
       y2="39.999443" /><linearGradient
       xlink:href="#linearGradient3924"
       id="linearGradient3965"
       gradientUnits="userSpaceOnUse"
       gradientTransform="matrix(2.7297298,0,0,2.7297298,-1.5135175,1.488319)"
       x1="23.99999"
       y1="4.999989"
       x2="23.99999"
       y2="43" /><radialGradient
       xlink:href="#linearGradient3811"
       id="radialGradient3976"
       gradientUnits="userSpaceOnUse"
       gradientTransform="matrix(1.5563924,0,0,0.16978827,70.270355,102.1321)"
       cx="-4.0287771"
       cy="93.467628"
       fx="-4.0287771"
       fy="93.467628"
       r="35.338131" /><linearGradient
       id="linearGradient2"><stop
         id="stop1"
         offset="0"
         style="stop-color:#6ecece;stop-opacity:1;" /><stop
         id="stop2"
         offset="1"
         style="stop-color:#2ab7ad;stop-opacity:1;" /></linearGradient><linearGradient
       id="linearGradient2867-449-88-871-390-598-476-591-434-148-57-177-8-3-3-6-4-8-8-8-5-7-8"><stop
         id="stop3750-1-0-7-6-6-1-3-9-3-9-2"
         style="stop-color:#404648;stop-opacity:1"
         offset="0" /><stop
         id="stop3754-1-8-5-2-7-6-7-1-9-1-0"
         style="stop-color:#0c1011;stop-opacity:1"
         offset="1" /></linearGradient><linearGradient
       xlink:href="#linearGradient3924"
       id="linearGradient5"
       gradientUnits="userSpaceOnUse"
       gradientTransform="matrix(-2.7297298,0,0,2.7297298,129.51352,1.488319)"
       x1="23.99999"
       y1="4.999989"
       x2="23.99999"
       y2="43" /><linearGradient
       xlink:href="#linearGradient2"
       id="linearGradient6"
       gradientUnits="userSpaceOnUse"
       gradientTransform="translate(-53.910211,29.341109)"
       x1="143.03316"
       y1="-13.528175"
       x2="143.03316"
       y2="89.099709" /><linearGradient
       xlink:href="#linearGradient2867-449-88-871-390-598-476-591-434-148-57-177-8-3-3-6-4-8-8-8-5-7-8"
       id="linearGradient7"
       gradientUnits="userSpaceOnUse"
       gradientTransform="translate(-53.910211,29.341109)"
       x1="92.654716"
       y1="-13.474196"
       x2="92.654716"
       y2="88.721832" /></defs><metadata
     id="metadata3054"><rdf:RDF><cc:Work
         rdf:about=""><dc:format>image/svg+xml</dc:format><dc:type
           rdf:resource="http://purl.org/dc/dcmitype/StillImage" /></cc:Work></rdf:RDF></metadata><path
     style="opacity:0.2;color:#000000;fill:url(#radialGradient3976);fill-opacity:1;fill-rule:nonzero;stroke:none;stroke-width:1;marker:none;visibility:visible;display:inline;overflow:visible;enable-background:accumulate"
     id="path3041"
     d="m 119,118.00181 a 55,6 0 0 1 -109.9999975,0 55,6 0 1 1 109.9999975,0 z" /><g
     style="display:inline"
     id="g2036"
     transform="matrix(2.6999989,0,0,0.55555607,-0.8000075,94.890689)"><g
       style="opacity:0.4"
       id="g3712"
       transform="matrix(1.052632,0,0,1.285713,-1.263158,-13.42854)"><rect
         style="fill:url(#radialGradient3946);fill-opacity:1;stroke:none"
         id="rect2801"
         y="40"
         x="38"
         height="7"
         width="5" /><rect
         style="fill:url(#radialGradient3948);fill-opacity:1;stroke:none"
         id="rect3696"
         transform="scale(-1,-1)"
         y="-47"
         x="-10"
         height="7"
         width="5" /><rect
         style="fill:url(#linearGradient3950);fill-opacity:1;stroke:none"
         id="rect3700"
         y="40"
         x="10"
         height="7.0000005"
         width="28" /></g></g><path
     id="rect5505-21-3-6"
     style="color:#000000;font-variation-settings:normal;display:inline;overflow:visible;visibility:visible;vector-effect:none;fill:url(#linearGradient6);fill-opacity:1;fill-rule:nonzero;stroke:#146666;stroke-width:1;stroke-linecap:butt;stroke-linejoin:miter;stroke-miterlimit:4;stroke-dasharray:none;stroke-dashoffset:0;stroke-opacity:0.5;marker:none;enable-background:accumulate;stop-color:#000000;opacity:1;-inkscape-stroke:none;stop-opacity:1"
     d="m 64,15.5 h 41.5 c 5.53999,0 10,4.460006 10,10 v 83 c 0,5.53999 -4.46001,10 -10,10 H 64" /><path
     id="rect6741-7-2"
     style="opacity:0.5;fill:none;stroke:url(#linearGradient5);stroke-width:1;stroke-linecap:round;stroke-linejoin:round;stroke-miterlimit:4;stroke-dasharray:none;stroke-dashoffset:0;stroke-opacity:1"
     d="m 105.5,16.501953 c 4.986,0 9,4.014005 9,9 v 82.999997 c 0,4.986 -4.014,9 -9,9 h -41 V 16.501953 Z" /><rect
     style="color:#000000;display:inline;overflow:visible;visibility:visible;opacity:0.5;fill:none;stroke:none;stroke-width:1;stroke-linecap:round;stroke-linejoin:round;stroke-miterlimit:4;stroke-dasharray:none;stroke-dashoffset:0;stroke-opacity:1;marker:none;enable-background:accumulate"
     id="rect5505-21-3-1"
     y="15.501808"
     x="12.499989"
     ry="10"
     rx="10"
     height="103"
     width="103" /><path
     id="rect5505-21-3"
     style="color:#000000;font-variation-settings:normal;display:inline;overflow:visible;visibility:visible;opacity:1;vector-effect:none;fill:url(#linearGradient7);fill-opacity:1;fill-rule:nonzero;stroke:#000000;stroke-width:1;stroke-linecap:butt;stroke-linejoin:miter;stroke-miterlimit:4;stroke-dasharray:none;stroke-dashoffset:0;stroke-opacity:0.7;marker:none;enable-background:accumulate;stop-color:#000000;stop-opacity:1;-inkscape-stroke:none"
     d="m 22.5,15.5 c -5.539994,0 -10,4.460006 -10,10 v 83 c 0,5.53999 4.460006,10 10,10 h 41 v -103 z" /><path
     id="rect6741-7"
     style="opacity:0.2;fill:none;stroke:url(#linearGradient3965);stroke-width:1;stroke-linecap:butt;stroke-linejoin:round;stroke-miterlimit:4;stroke-dasharray:none;stroke-dashoffset:0;stroke-opacity:1"
     d="M 63,16.501953 H 22.5 c -4.985995,0 -9,4.014005 -9,9 v 82.999997 c 0,4.986 4.014005,9 9,9 H 63" /><path
     id="path859-59-98-9-4-7-9-0-31-1-79-2"
     style="font-variation-settings:normal;opacity:0.15;vector-effect:none;fill:#167070;fill-opacity:1;stroke:none;stroke-width:1.87218;stroke-linecap:butt;stroke-linejoin:miter;stroke-miterlimit:4;stroke-dasharray:none;stroke-dashoffset:0;stroke-opacity:0.5;-inkscape-stroke:none;marker:none;stop-color:#000000"
     d="m 93.108948,37.015816 c -2.285817,0.109681 -4.265103,1.546428 -5.579193,3.344277 C 78.024903,51.571506 68.52005,62.782919 59.015198,73.994332 54.488781,69.335612 49.977129,64.62199 45.443272,59.997017 c -2.774099,-2.585903 -7.406968,-2.837873 -10.43198,-0.551514 -1.427078,1.161598 -2.594598,2.744583 -2.896466,4.600082 -0.438715,2.138234 0.353592,4.360412 1.788258,5.95809 6.798836,8.882585 13.568518,17.788895 20.385551,26.656672 2.799964,2.823925 7.674628,3.105479 10.809106,0.709235 1.668537,-1.264213 2.614823,-3.198334 3.892098,-4.813588 10.470504,-14.602603 20.958141,-29.194653 31.417931,-43.80385 1.7113,-2.860632 1.40584,-6.841748 -0.977617,-9.23872 -1.623623,-1.640148 -4.008967,-2.620931 -6.321205,-2.497608 z" /><path
     id="path859-59-98-9-4-7-9-0-31-1-79"
     style="font-variation-settings:normal;opacity:0.3;vector-effect:none;fill:#167070;fill-opacity:1;stroke:none;stroke-width:1.87218;stroke-linecap:butt;stroke-linejoin:miter;stroke-miterlimit:4;stroke-dasharray:none;stroke-dashoffset:0;stroke-opacity:0.5;-inkscape-stroke:none;marker:none;stop-color:#000000"
     d="M 88.617271,40.624345 59.06415,75.483304 45.054827,61.007202 v -0.0043 c -2.354839,-2.414781 -6.285461,-2.820187 -9.175622,-0.972181 -0.116175,0.07515 -0.214871,0.172707 -0.29061,0.286611 -2.797151,2.055998 -3.470169,5.827234 -1.316311,8.523667 l 20.642181,27.012439 c 0.02812,0.03654 0.05738,0.07122 0.0897,0.103781 2.370502,2.343587 6.246283,2.713264 9.098783,0.888924 0.0015,2e-6 0.0028,2e-6 0.0058,0 0.713604,-0.459469 1.319659,-1.038675 1.794994,-1.703073 11.210229,-15.620442 33.625231,-46.867734 33.625231,-46.867734 1.885727,-3.280924 0.964337,-7.322619 -2.246269,-9.184624 -3.210612,-1.861999 -6.474911,-1.332354 -8.664177,1.533606 z" /><path
     id="path859-59-98-9-4-7-9-0-31-1-53"
     style="font-variation-settings:normal;vector-effect:none;fill:#edfafa;fill-opacity:1;stroke:none;stroke-width:1.08894;stroke-linecap:butt;stroke-linejoin:miter;stroke-miterlimit:4;stroke-dasharray:none;stroke-dashoffset:0;stroke-opacity:0.5;marker:none;stop-color:#000000;opacity:1;-inkscape-stroke:none;stop-opacity:1"
     d="M 88.617271,39.626154 59.06415,74.485113 45.054827,60.009011 v -0.0043 c -2.354839,-2.414781 -6.285461,-2.820187 -9.175622,-0.972181 -0.116175,0.07515 -0.214871,0.172707 -0.29061,0.286611 -2.797151,2.055998 -3.470169,5.827234 -1.316311,8.523667 l 20.642181,27.012439 c 0.02812,0.03654 0.05738,0.07122 0.0897,0.103781 2.370502,2.343587 6.246283,2.713264 9.098783,0.888924 0.0015,2e-6 0.0028,2e-6 0.0058,0 0.713604,-0.459469 1.319659,-1.038675 1.794994,-1.703073 11.210229,-15.620442 33.625231,-46.867734 33.625231,-46.867734 1.885727,-3.280924 0.964337,-7.322619 -2.246269,-9.184624 -3.210612,-1.861999 -6.474911,-1.332354 -8.664177,1.533606 z" /><path
     id="path859-59-98-9-4-7-9-0-31-1-5"
     style="font-variation-settings:normal;opacity:0.07;vector-effect:none;fill:#167070;fill-opacity:1;stroke:none;stroke-width:1.87218;stroke-linecap:butt;stroke-linejoin:miter;stroke-miterlimit:4;stroke-dasharray:none;stroke-dashoffset:0;stroke-opacity:0.5;-inkscape-stroke:none;marker:none;stop-color:#000000"
     d="m 100.42535,44.720894 c -0.006,0.0103 -0.0114,0.02098 -0.0176,0.03125 -10.459776,14.609183 -20.947469,29.202099 -31.417963,43.804688 -1.277273,1.615252 -2.224042,3.548288 -3.892578,4.8125 -3.134475,2.396241 -8.008632,2.114937 -10.808594,-0.708985 -6.817026,-8.867768 -13.585936,-17.773674 -20.384765,-26.65625 -0.326672,-0.363789 -0.616027,-0.763411 -0.869141,-1.183594 0.105004,1.058598 0.50396,2.102182 1.238282,3.021485 L 54.913615,94.85566 c 0.02812,0.03654 0.05752,0.07095 0.08984,0.103515 2.3705,2.343585 6.247112,2.71301 9.09961,0.888672 0.0015,2e-6 0.0029,2e-6 0.0059,0 0.713603,-0.459468 1.319587,-1.038727 1.794922,-1.703125 11.210201,-15.620426 33.624986,-46.867187 33.624986,-46.867187 0.47109,-0.81964 0.767697,-1.687888 0.896477,-2.556641 z" /><path
     id="path859-59-98-9-4-7-9-0-31-1-5-2"
     style="font-variation-settings:normal;vector-effect:none;fill:#fffefe;fill-opacity:1;stroke:none;stroke-width:2.83044;stroke-linecap:butt;stroke-linejoin:miter;stroke-miterlimit:4;stroke-dasharray:none;stroke-dashoffset:0;stroke-opacity:0.5;-inkscape-stroke:none;marker:none;stop-color:#000000"
     d="m 93.708557,37.004097 c -1.932592,-0.04753 -3.721553,0.829871 -5.089843,2.621094 h -0.002 L 59.064026,74.484566 45.054261,60.009957 v -0.0059 c -2.354837,-2.414778 -6.285624,-2.818707 -9.175782,-0.970703 -0.116175,0.07515 -0.213323,0.171252 -0.289062,0.285156 -1.82132,1.33873 -2.734392,3.4048 -2.560547,5.427735 0.151359,-1.684418 1.038964,-3.311275 2.560547,-4.429688 0.07574,-0.113904 0.172887,-0.210006 0.289062,-0.285156 2.890158,-1.848004 6.820945,-1.444075 9.175782,0.970703 v 0.0059 L 59.064026,75.482613 88.616761,40.625191 h 0.002 c 2.189263,-2.865957 5.453453,-3.397153 8.664062,-1.535156 1.94304,1.126869 3.042007,3.053248 3.193357,5.125 0.17988,-2.436629 -0.940897,-4.816724 -3.193357,-6.123047 -1.203978,-0.698249 -2.414663,-1.059373 -3.574219,-1.087891 z" /><path
     id="path859-59-98-9-4-7-9-0-31-1-2-5"
     style="font-variation-settings:normal;opacity:0.15;vector-effect:none;fill:#167070;fill-opacity:1;stroke:none;stroke-width:1.87218;stroke-linecap:butt;stroke-linejoin:miter;stroke-miterlimit:4;stroke-dasharray:none;stroke-dashoffset:0;stroke-opacity:0.5;-inkscape-stroke:none;marker:none;stop-color:#000000"
     d="m 100.39215,44.773629 c -0.14397,0.201084 -0.28766,0.402437 -0.431637,0.603515 -0.12334,0.303719 -0.26289,0.604819 -0.43164,0.898438 0,0 -22.414796,31.246777 -33.625003,46.867187 -0.475335,0.664396 -1.08132,1.243658 -1.794922,1.703125 -0.003,2e-6 -0.0044,2e-6 -0.0059,0 -2.852496,1.824336 -6.729112,1.454911 -9.09961,-0.888672 -0.03232,-0.03256 -0.06172,-0.06697 -0.08984,-0.103515 L 34.273011,66.840035 c -0.351489,-0.440032 -0.620044,-0.909728 -0.822266,-1.394532 -0.150702,-0.20279 -0.289671,-0.414187 -0.419922,-0.630859 0.102467,1.060429 0.506418,2.106229 1.242188,3.027344 L 54.913635,94.85566 c 0.02812,0.03654 0.05752,0.07095 0.08984,0.103515 2.370498,2.343583 6.247114,2.713008 9.09961,0.888672 0.0015,2e-6 0.0029,2e-6 0.0059,0 0.713602,-0.459467 1.319587,-1.038727 1.794922,-1.703125 11.210207,-15.62041 33.625006,-46.867187 33.625006,-46.867187 0.46185,-0.803558 0.732707,-1.652401 0.863277,-2.503906 z" /></svg>
