<?xml version="1.0" encoding="UTF-8" standalone="no"?>
<svg
   version="1.1"
   width="64"
   height="64"
   id="svg6333"
   xmlns:xlink="http://www.w3.org/1999/xlink"
   xmlns="http://www.w3.org/2000/svg"
   xmlns:svg="http://www.w3.org/2000/svg"
   xmlns:rdf="http://www.w3.org/1999/02/22-rdf-syntax-ns#"
   xmlns:cc="http://creativecommons.org/ns#"
   xmlns:dc="http://purl.org/dc/elements/1.1/">
  <defs
     id="defs6335">
    <linearGradient
       id="linearGradient3924-2-2-5-8">
      <stop
         id="stop3926-9-4-9-6"
         style="stop-color:#ffffff;stop-opacity:1"
         offset="0" />
      <stop
         id="stop3928-9-8-6-5"
         style="stop-color:#ffffff;stop-opacity:0.23529412"
         offset="0.06316455" />
      <stop
         id="stop3930-3-5-1-7"
         style="stop-color:#ffffff;stop-opacity:0.15686275"
         offset="0.95056331" />
      <stop
         id="stop3932-8-0-4-8"
         style="stop-color:#ffffff;stop-opacity:0.39215687"
         offset="1" />
    </linearGradient>
    <radialGradient
       cx="4.9929786"
       cy="43.5"
       r="2.5"
       fx="4.9929786"
       fy="43.5"
       id="radialGradient3337-2-2"
       xlink:href="#linearGradient3688-166-749-4-0-3-8"
       gradientUnits="userSpaceOnUse"
       gradientTransform="matrix(2.4045407,0,0,0.99999998,41.985755,15.500001)" />
    <linearGradient
       id="linearGradient3688-166-749-4-0-3-8">
      <stop
         id="stop2883-4-0-1-8"
         style="stop-color:#181818;stop-opacity:1"
         offset="0" />
      <stop
         id="stop2885-9-2-9-6"
         style="stop-color:#181818;stop-opacity:0"
         offset="1" />
    </linearGradient>
    <radialGradient
       cx="4.9929786"
       cy="43.5"
       r="2.5"
       fx="4.9929786"
       fy="43.5"
       id="radialGradient3339-1-4"
       xlink:href="#linearGradient3688-464-309-9-2-4-2"
       gradientUnits="userSpaceOnUse"
       gradientTransform="matrix(2.4045407,0,0,0.99999998,-22.014244,-102.5)" />
    <linearGradient
       id="linearGradient3688-464-309-9-2-4-2">
      <stop
         id="stop2889-7-9-6-9"
         style="stop-color:#181818;stop-opacity:1"
         offset="0" />
      <stop
         id="stop2891-6-6-1-7"
         style="stop-color:#181818;stop-opacity:0"
         offset="1" />
    </linearGradient>
    <linearGradient
       id="linearGradient3702-501-757-8-4-1-1">
      <stop
         id="stop2895-8-9-9-1"
         style="stop-color:#181818;stop-opacity:0"
         offset="0" />
      <stop
         id="stop2897-7-8-7-7"
         style="stop-color:#181818;stop-opacity:1"
         offset="0.5" />
      <stop
         id="stop2899-4-5-1-5"
         style="stop-color:#181818;stop-opacity:0"
         offset="1" />
    </linearGradient>
    <linearGradient
       x1="25.058096"
       y1="47.027729"
       x2="25.058096"
       y2="39.999443"
       id="linearGradient6394"
       xlink:href="#linearGradient3702-501-757-8-4-1-1"
       gradientUnits="userSpaceOnUse"
       gradientTransform="matrix(1.5714286,0,0,0.7142857,-5.7142853,27.928572)" />
    <linearGradient
       id="linearGradient2867-449-88-871-390-598-476-591-434-148-57-177-8-3-3-6-4-8-8-8-5-7-8">
      <stop
         id="stop3750-1-0-7-6-6-1-3-9-3-9-2"
         style="stop-color:#404648;stop-opacity:1"
         offset="0" />
      <stop
         id="stop3754-1-8-5-2-7-6-7-1-9-1-0"
         style="stop-color:#0c1011;stop-opacity:1"
         offset="1" />
    </linearGradient>
    <linearGradient
       id="linearGradient2">
      <stop
         id="stop5"
         offset="0"
         style="stop-color:#6ecece;stop-opacity:1;" />
      <stop
         id="stop6"
         offset="1"
         style="stop-color:#2ab7ad;stop-opacity:1;" />
    </linearGradient>
    <linearGradient
       xlink:href="#linearGradient3924-2-2-5-8"
       id="linearGradient5"
       gradientUnits="userSpaceOnUse"
       gradientTransform="matrix(1.4324324,0,0,1.4362832,-2.378381,-2.4707782)"
       x1="23.99999"
       y1="4.999989"
       x2="23.99999"
       y2="43" />
    <linearGradient
       xlink:href="#linearGradient2"
       id="linearGradient6"
       gradientUnits="userSpaceOnUse"
       gradientTransform="matrix(-1.4102564,0,0,1.4102564,65.846174,-3.2564048)"
       x1="23.528315"
       y1="6.08318"
       x2="23.528315"
       y2="44.23307" />
    <linearGradient
       xlink:href="#linearGradient3924-2-2-5-8"
       id="linearGradient7"
       gradientUnits="userSpaceOnUse"
       gradientTransform="matrix(-1.4324324,0,0,1.4362832,66.37838,-2.4707782)"
       x1="23.99999"
       y1="4.999989"
       x2="23.99999"
       y2="43" />
    <linearGradient
       xlink:href="#linearGradient2867-449-88-871-390-598-476-591-434-148-57-177-8-3-3-6-4-8-8-8-5-7-8"
       id="linearGradient8"
       gradientUnits="userSpaceOnUse"
       gradientTransform="translate(-52)"
       x1="72.56308"
       y1="4.8390889"
       x2="72.56308"
       y2="58.947128" />
  </defs>
  <metadata
     id="metadata6338">
    <rdf:RDF>
      <cc:Work
         rdf:about="">
        <dc:format>image/svg+xml</dc:format>
        <dc:type
           rdf:resource="http://purl.org/dc/dcmitype/StillImage" />
      </cc:Work>
    </rdf:RDF>
  </metadata>
  <rect
     style="opacity:0.6;fill:url(#radialGradient3337-2-2);fill-opacity:1;stroke:none;stroke-width:1.06199"
     id="rect2801-5-5-7-9"
     y="56.5"
     x="54"
     height="5"
     width="6" />
  <rect
     style="opacity:0.6;fill:url(#linearGradient6394);fill-opacity:1;stroke:none;stroke-width:1.06199"
     id="rect3700-5-6-8-4"
     y="56.5"
     x="10"
     height="5.0000005"
     width="44" />
  <rect
     style="opacity:0.6;fill:url(#radialGradient3339-1-4);fill-opacity:1;stroke:none;stroke-width:1.06199"
     id="rect3696-3-0-3-7"
     transform="scale(-1)"
     y="-61.5"
     x="-10"
     height="5"
     width="6" />
  <path
     id="rect5505-21-1-5-0-9"
     style="color:#000000;display:inline;overflow:visible;visibility:visible;fill:url(#linearGradient6);fill-opacity:1;fill-rule:nonzero;stroke:#146666;stroke-width:1;stroke-opacity:0.501961;marker:none;enable-background:accumulate"
     d="m 31.5,4.5 h 21.999999 c 3.323997,0 6,2.6760033 6,6 v 43 c 0,3.323997 -2.676003,6 -6,6 H 31.5" />
  <path
     id="rect6741-5-0-2-3-9-2"
     style="opacity:0.5;fill:none;stroke:url(#linearGradient7);stroke-width:1;stroke-linecap:round;stroke-linejoin:round;stroke-miterlimit:4;stroke-dasharray:none;stroke-dashoffset:0;stroke-opacity:1"
     d="m 53.499999,5.4296875 c 2.769997,0 5,2.2300028 5,5.0000005 v 43.140624 c 0,2.769998 -2.230003,5 -5,5 H 32.5 V 5.4296875 Z" />
  <path
     id="rect5505-21-1-5-0"
     style="color:#000000;display:inline;overflow:visible;visibility:visible;fill:url(#linearGradient8);fill-opacity:1;fill-rule:nonzero;stroke:#000000;stroke-width:1;stroke-opacity:0.7;marker:none;enable-background:accumulate;font-variation-settings:normal;opacity:1;vector-effect:none;stroke-linecap:butt;stroke-linejoin:miter;stroke-miterlimit:4;stroke-dasharray:none;stroke-dashoffset:0;-inkscape-stroke:none;stop-color:#000000;stop-opacity:1"
     d="m 10.5,4.5 c -3.3239967,0 -6,2.6760033 -6,6 v 43 c 0,3.323997 2.6760033,6 6,6 h 21 v -55 z" />
  <path
     id="rect6741-5-0-2-3-9"
     style="opacity:0.2;fill:none;stroke:url(#linearGradient5);stroke-width:1;stroke-linecap:butt;stroke-linejoin:round;stroke-miterlimit:4;stroke-dasharray:none;stroke-dashoffset:0;stroke-opacity:1"
     d="M 31,5.4296875 H 10.5 c -2.7699972,0 -5,2.2300028 -5,5.0000005 v 43.140624 c 0,2.769998 2.2300028,5 5,5 H 31" />
  <path
     id="path859-59-98-9-4-7-9-0-31-1-7-6"
     style="font-variation-settings:normal;opacity:0.15;vector-effect:none;fill:#167070;fill-opacity:1;stroke:none;stroke-width:0.99971;stroke-linecap:butt;stroke-linejoin:miter;stroke-miterlimit:4;stroke-dasharray:none;stroke-dashoffset:0;stroke-opacity:0.5;-inkscape-stroke:none;marker:none;stop-color:#000000"
     d="m 47.045165,16.007812 c -1.561027,0.05045 -2.790753,1.159045 -3.663825,2.356306 C 38.538162,24.07673 33.694984,29.789342 28.851805,35.501953 26.493392,33.094148 24.176077,30.612942 21.797118,28.25 c -1.977766,-1.705207 -5.346038,-1.430389 -6.900391,0.712891 -1.245841,1.523418 -1.166891,3.889082 0.170425,5.332127 3.671433,4.781018 7.298698,9.599654 10.997544,14.357326 2.009023,2.021816 5.777953,1.717336 7.355169,-0.675002 5.981002,-8.347666 11.984555,-16.681722 17.951472,-25.037889 1.240068,-2.045735 0.58354,-5.013449 -1.541016,-6.195312 -0.834322,-0.497075 -1.80795,-0.796143 -2.785156,-0.736329 z" />
  <path
     id="path859-59-98-9-4-7-9-0-31-1-7"
     style="font-variation-settings:normal;opacity:0.3;vector-effect:none;fill:#167070;fill-opacity:1;stroke:none;stroke-width:0.99971;stroke-linecap:butt;stroke-linejoin:miter;stroke-miterlimit:4;stroke-dasharray:none;stroke-dashoffset:0;stroke-opacity:0.5;-inkscape-stroke:none;marker:none;stop-color:#000000"
     d="M 44.663016,18.399555 28.901351,36.991 21.429712,29.270412 v -0.0023 c -1.255914,-1.287883 -3.352246,-1.504099 -4.893665,-0.518496 -0.06196,0.04008 -0.114598,0.09211 -0.154992,0.152859 -1.491814,1.096532 -1.850757,3.107858 -0.702033,4.545956 l 11.009164,14.406634 c 0.015,0.01949 0.0306,0.03798 0.04784,0.05535 1.264268,1.249913 3.331351,1.447074 4.852685,0.474093 8.09e-4,1e-6 0.0015,1e-6 0.0031,0 0.380589,-0.24505 0.703818,-0.55396 0.95733,-0.908306 5.978789,-8.330902 17.93346,-24.996125 17.93346,-24.996125 1.005717,-1.749826 0.514311,-3.905397 -1.198014,-4.898466 -1.712326,-0.993066 -3.453285,-0.710589 -4.620894,0.817923 z" />
  <path
     id="path859-59-98-9-4-7-9-0-31-1"
     style="font-variation-settings:normal;vector-effect:none;fill:#edfafa;fill-opacity:1;stroke:none;stroke-width:1.5114;stroke-linecap:butt;stroke-linejoin:miter;stroke-miterlimit:4;stroke-dasharray:none;stroke-dashoffset:0;stroke-opacity:0.5;marker:none;stop-color:#000000"
     d="M 44.663016,17.399569 28.901351,35.991014 21.429712,28.270426 v -0.0023 c -1.255914,-1.287883 -3.352246,-1.504099 -4.893665,-0.518496 -0.06196,0.04008 -0.114598,0.09211 -0.154992,0.152859 -1.491814,1.096532 -1.850757,3.107858 -0.702033,4.545956 l 11.009164,14.406634 c 0.015,0.01949 0.0306,0.03798 0.04784,0.05535 1.264268,1.249913 3.331351,1.447074 4.852685,0.474093 8.09e-4,1e-6 0.0015,1e-6 0.0031,0 0.380589,-0.24505 0.703818,-0.55396 0.95733,-0.908306 5.978789,-8.330902 17.93346,-24.996125 17.93346,-24.996125 1.005717,-1.749826 0.514311,-3.905397 -1.198014,-4.898466 -1.712326,-0.993066 -3.453285,-0.710589 -4.620894,0.817923 z" />
  <path
     id="path859-59-98-9-4-7-9-0-31-1-90"
     style="font-variation-settings:normal;vector-effect:none;fill:#fffefe;fill-opacity:1;stroke:none;stroke-width:1.5114;stroke-linecap:butt;stroke-linejoin:miter;stroke-miterlimit:4;stroke-dasharray:none;stroke-dashoffset:0;stroke-opacity:0.5;marker:none;stop-color:#000000"
     d="m 47.377196,16.001953 c -1.030716,-0.02535 -1.983136,0.443119 -2.712891,1.398438 h -0.002 L 28.900634,35.990234 21.429931,28.269531 v -0.002 C 20.174018,26.979696 18.076817,26.764398 16.535399,27.75 c -0.06196,0.04008 -0.113903,0.0916 -0.154297,0.152344 -1.042283,0.766112 -1.529425,1.97914 -1.33789,3.130859 0.135599,-0.814508 0.596227,-1.585712 1.33789,-2.130859 0.04039,-0.06075 0.09234,-0.112264 0.154297,-0.152344 1.541418,-0.985602 3.638619,-0.770304 4.894532,0.517578 v 0.002 l 7.470703,7.720703 15.761718,-18.589843 h 0.002 c 1.167608,-1.528511 2.90877,-1.811425 4.621094,-0.81836 0.962581,0.558252 1.537821,1.48366 1.679688,2.498047 0.190509,-1.379335 -0.406391,-2.759614 -1.679735,-3.498094 -0.642121,-0.372399 -1.289773,-0.564869 -1.908203,-0.580078 z" />
  <path
     id="path859-59-98-9-4-7-9-0-31-1-9"
     style="font-variation-settings:normal;opacity:0.07;vector-effect:none;fill:#167070;fill-opacity:1;stroke:none;stroke-width:0.99971;stroke-linecap:butt;stroke-linejoin:miter;stroke-miterlimit:4;stroke-dasharray:none;stroke-dashoffset:0;stroke-opacity:0.5;-inkscape-stroke:none;marker:none;stop-color:#000000"
     d="m 50.996337,19.462891 c -5.843668,8.180612 -11.720188,16.340492 -17.576172,24.513671 -1.577215,2.392336 -5.346448,2.697596 -7.355469,0.675782 -3.698842,-4.757667 -7.326617,-9.576409 -10.998047,-14.357422 -0.01701,-0.01836 -0.03222,-0.03799 -0.04883,-0.05664 -0.07484,0.761156 0.132301,1.547666 0.66211,2.210938 l 11.007814,14.406249 c 0.015,0.01949 0.03159,0.03732 0.04883,0.05469 1.264267,1.249912 3.33023,1.44759 4.851563,0.47461 h 0.0039 c 0.380588,-0.24505 0.703519,-0.553858 0.957031,-0.908204 5.978783,-8.330893 17.933594,-24.996093 17.933594,-24.996093 0.370041,-0.643827 0.535229,-1.342009 0.513672,-2.017578 z" />
  <path
     id="path859-59-98-9-4-7-9-0-31-1-3"
     style="font-variation-settings:normal;opacity:0.15;vector-effect:none;fill:#167070;fill-opacity:1;stroke:none;stroke-width:0.99971;stroke-linecap:butt;stroke-linejoin:miter;stroke-miterlimit:4;stroke-dasharray:none;stroke-dashoffset:0;stroke-opacity:0.5;-inkscape-stroke:none;marker:none;stop-color:#000000"
     d="m 50.965087,19.082031 c -0.06586,0.474854 -0.224944,0.950456 -0.482422,1.398438 0,0 -11.954811,16.6652 -17.933594,24.996093 -0.253512,0.354346 -0.576443,0.663154 -0.957031,0.908204 h -0.0039 c -1.521333,0.97298 -3.587296,0.775302 -4.851563,-0.47461 -0.01724,-0.01737 -0.03383,-0.0352 -0.04883,-0.05469 L 15.679931,31.449219 c -0.346146,-0.433343 -0.554112,-0.919289 -0.636719,-1.416016 -0.137151,0.823827 0.05909,1.692877 0.636719,2.416016 l 11.007812,14.40625 c 0.015,0.01949 0.03159,0.03732 0.04883,0.05469 1.264267,1.249912 3.33023,1.44759 4.851563,0.47461 h 0.0039 c 0.380588,-0.24505 0.703519,-0.553858 0.957031,-0.908204 5.978783,-8.330893 17.933594,-24.996093 17.933594,-24.996093 0.440001,-0.765548 0.592408,-1.608891 0.482422,-2.398438 z" />
</svg>
